Coordinates
version=1
nRows=7
nColumns=40
inDegrees=yes

Units are S.I. units (second, meters, Newtons, ...)
Angles are in degrees.

endheader
time	pelvis_tilt	pelvis_list	pelvis_rotation	pelvis_tx	pelvis_ty	pelvis_tz	hip_flexion_r	hip_adduction_r	hip_rotation_r	knee_angle_r	knee_angle_r_beta	ankle_angle_r	subtalar_angle_r	mtp_angle_r	hip_flexion_l	hip_adduction_l	hip_rotation_l	knee_angle_l	knee_angle_l_beta	ankle_angle_l	subtalar_angle_l	mtp_angle_l	lumbar_extension	lumbar_bending	lumbar_rotation	arm_flex_r	arm_add_r	arm_rot_r	elbow_flex_r	pro_sup_r	wrist_flex_r	wrist_dev_r	arm_flex_l	arm_add_l	arm_rot_l	elbow_flex_l	pro_sup_l	wrist_flex_l	wrist_dev_l
     34.89114286	     -3.21136189	     -3.61096427	     -3.41657514	      1.06968397	      0.91667362	      0.45030977	     28.19910827	     -0.85793909	    -15.23330741	     12.78291487	     12.78291487	      2.74470546	      6.05840796	      8.66472976	     -5.24214465	     -3.83494083	    -13.77447690	     10.80842300	     10.80842300	     19.03263647	     -5.41761924	     -6.49867505	    -10.21640177	      5.76303267	      1.98597485	    -14.79498716	    -11.79296785	    -18.24991977	     18.46321692	     48.11908891	      0.00000000	      0.00000000	     28.44107546	    -18.60439032	     -6.49777740	     79.75367568	     47.35330395	      0.00000000	      0.00000000
     34.90228571	     -3.33203740	     -3.57428440	     -3.37787690	      1.07200918	      0.91442053	      0.45198088	     28.00151185	     -0.66111825	    -15.44675457	     12.91928648	     12.91928648	      2.48286397	      5.91993416	      8.65334040	     -5.86419794	     -3.90109220	    -13.74019560	     10.90810144	     10.90810144	     19.50099125	     -5.47077837	     -6.59202251	     -9.71752762	      5.71317595	      1.69840715	    -15.48465380	    -11.86277215	    -18.31195011	     18.33309593	     48.12338824	      0.00000000	      0.00000000	     28.73713851	    -18.72482556	     -6.60692169	     80.10484423	     47.36986113	      0.00000000	      0.00000000
     34.91342857	     -3.35261627	     -3.76138505	     -3.21545479	      1.07451537	      0.91224107	      0.45386595	     27.60836049	     -0.22498126	    -15.29787506	     13.08890096	     13.08890096	      0.55249513	      4.66058033	      3.73793079	     -6.15538078	     -4.49901618	    -14.37128009	     12.08912872	     12.08912872	     21.42676229	     -3.77704937	     -4.40488679	     -9.67603147	      5.98441345	      1.33135356	    -17.46914489	    -11.79066541	    -19.19422377	     21.72146713	     47.98104596	      0.00000000	      0.00000000	     27.64702163	    -19.04472115	     -7.83347939	     84.94672158	     47.57795581	      0.00000000	      0.00000000
     34.92457143	     -3.49668765	     -3.83683026	     -3.11001755	      1.07665680	      0.91017507	      0.45579857	     27.74299649	     -0.06975600	    -15.16704829	     14.23088425	     14.23088425	     -0.06412633	      3.79826594	      2.25562901	     -6.34276024	     -4.84432199	    -14.18764440	     12.97876874	     12.97876874	     22.04854660	     -3.99443526	     -4.14793237	     -9.30350603	      6.07158655	      1.59832196	    -18.30469567	    -11.69432734	    -19.12120193	     21.51760901	     47.95891448	      0.00000000	      0.00000000	     28.10985263	    -18.62625329	     -7.99938984	     85.79399004	     47.62134973	      0.00000000	      0.00000000
     34.93571429	     -3.48793679	     -4.05511729	     -3.01498863	      1.07895800	      0.90857329	      0.45806333	     27.47478303	      0.38391806	    -14.47181880	     14.92325037	     14.92325037	     -2.07090294	      1.74752072	     -2.88773212	     -6.54071125	     -5.46162396	    -14.32868476	     14.28902228	     14.28902228	     23.16268682	     -3.62845407	     -2.89274697	     -9.15489577	      6.30815480	      1.35843508	    -18.91649876	    -11.72592602	    -18.91544599	     22.36616067	     47.83430881	      0.00000000	      0.00000000	     27.69407793	    -18.74144978	     -8.46802126	     87.59377884	     47.73813796	      0.00000000	      0.00000000
     34.94685714	     -3.31435935	     -4.33904362	     -2.91754802	      1.08124102	      0.90772838	      0.46026448	     27.32049869	      0.64447809	    -14.41700770	     16.45571197	     16.45571197	     -2.05971067	      1.20853629	     -3.41237163	     -7.00666989	     -6.04957851	    -14.08981295	     15.30320074	     15.30320074	     23.33487892	     -4.11067425	     -3.01768756	     -9.17685454	      6.65989963	      1.50934973	    -19.19104752	    -11.72227208	    -18.87043506	     22.20341244	     47.83030556	      0.00000000	      0.00000000	     27.71355169	    -18.56435960	     -8.52833275	     87.95058305	     47.75317186	      0.00000000	      0.00000000
     34.95800000	     -3.50141181	     -4.42653252	     -2.86226783	      1.08293834	      0.90647223	      0.46274998	     27.79297521	      0.84030300	    -13.50145328	     18.27661653	     18.27661653	     -2.27274854	     -0.79313071	     -4.87142864	     -6.50815351	     -6.61908277	    -13.83985002	     17.34076118	     17.34076118	     23.52435057	     -4.75124167	     -3.37023417	     -8.86750257	      6.66691279	      1.47276246	    -19.14754171	    -11.70757363	    -18.55463485	     22.07257646	     47.77308639	      0.00000000	      0.00000000	     27.28202117	    -18.35034681	     -8.95077802	     89.57242771	     47.84341005	      0.00000000	      0.00000000
